# xmcd CD database file
#
# Track frame offsets:
#	150
#	24859
#	43102
#	62840
#	81009
#	102087
#	118548
#	139758
#	156706
#	174307
#	190109
#	202355
#
# Disc length: 3041 seconds
#
# Revision: 4
# Processed by: cddbd v1.5.2PL0 Copyright (c) Steve Scherf et al.
# Submitted via: CDex 2.21
#
DISCID=a40bdf0c
DTITLE=Travis Tritt - The Storm
DYEAR=2007
DGENRE=Country
TTITLE0=Mudcat Moan  You Never Take Me Dancing
TTITLE1=[I Wanna] Feel Too Much
TTITLE2=Doesn't the Good Outweigh the Bad
TTITLE3=What If Love Hangs On
TTITLE4=Rub off on Me
TTITLE5=Something Stronger Than Me
TTITLE6=The Storm
TTITLE7=I Don't Know How I Got By
TTITLE8=The Pressure Is On
TTITLE9=Should've Listened
TTITLE10=High Time for Gettin' down
TTITLE11=Somehow, Somewhere, Someway
EXTD=YEAR: 2007
EXTT0=
EXTT1=
EXTT2=
EXTT3=
EXTT4=
EXTT5=
EXTT6=
EXTT7=
EXTT8=
EXTT9=
EXTT10=
EXTT11=
PLAYORDER=
